<svg width="94" height="94" viewBox="0 0 94 94" fill="none" xmlns="http://www.w3.org/2000/svg">
<path d="M15.6667 70.5C15.6667 66.345 17.3173 62.3601 20.2554 59.422C23.1935 56.4839 27.1784 54.8333 31.3334 54.8333H62.6667C66.8218 54.8333 70.8067 56.4839 73.7447 59.422C76.6828 62.3601 78.3334 66.345 78.3334 70.5C78.3334 72.5775 77.5081 74.57 76.0391 76.039C74.57 77.508 72.5776 78.3333 70.5001 78.3333H23.5001C21.4226 78.3333 19.4301 77.508 17.9611 76.039C16.492 74.57 15.6667 72.5775 15.6667 70.5Z" fill="#FFCC00"/>
<path d="M47 39.1667C53.4893 39.1667 58.75 33.906 58.75 27.4167C58.75 20.9273 53.4893 15.6667 47 15.6667C40.5107 15.6667 35.25 20.9273 35.25 27.4167C35.25 33.906 40.5107 39.1667 47 39.1667Z" fill="#FFCC00"/>
</svg>
